<?xml version="1.0" encoding="UTF-8" standalone="no"?>
<!--?xml version="1.0" encoding="UTF-8" standalone="no" ?-->

<svg
   version="1.1"
   width="600"
   height="500"
   viewBox="0 0 599.99999 500"
   xml:space="preserve"
   id="svg294"
   sodipodi:docname="soft.svg"
   inkscape:version="1.2.2 (732a01da63, 2022-12-09)"
   xmlns:inkscape="http://www.inkscape.org/namespaces/inkscape"
   xmlns:sodipodi="http://sodipodi.sourceforge.net/DTD/sodipodi-0.dtd"
   xmlns="http://www.w3.org/2000/svg"
   xmlns:svg="http://www.w3.org/2000/svg"><sodipodi:namedview
     id="namedview296"
     pagecolor="#ffffff"
     bordercolor="#000000"
     borderopacity="0.25"
     inkscape:showpageshadow="2"
     inkscape:pageopacity="0.0"
     inkscape:pagecheckerboard="0"
     inkscape:deskcolor="#d1d1d1"
     showgrid="false"
     inkscape:zoom="0.837"
     inkscape:cx="232.97491"
     inkscape:cy="469.53405"
     inkscape:window-width="1920"
     inkscape:window-height="1017"
     inkscape:window-x="-8"
     inkscape:window-y="-8"
     inkscape:window-maximized="1"
     inkscape:current-layer="svg294"
     showguides="true" /><desc
     id="desc150">Created with Fabric.js 2.3.2</desc><defs
     id="defs152" /><g
     transform="matrix(5.65,0,0,5.65,500,500)"
     id="g292">																							</g><g
     aria-label="Software Engineer"
     id="text968"
     style="font-size:40.8055px;font-family:'Imprint MT Shadow';-inkscape-font-specification:'Imprint MT Shadow, Normal';letter-spacing:2.98px"
     transform="matrix(1.0557484,0.07067039,-0.07794785,1.1644668,-0.61519069,-132.69219)"><path
       d="m 172.21172,427.71734 1.05432,0.78593 q -1.00287,3.17892 -1.0589,5.82109 -0.0281,2.63811 0.80632,4.55242 0.85044,1.92621 2.4479,3.11702 1.99682,1.4885 4.34738,1.3023 2.35057,-0.1862 3.80335,-2.13509 1.35752,-1.8211 1.16522,-3.53008 -0.18038,-1.72494 -1.19259,-3.10077 -1.00031,-1.39179 -2.87892,-3.33891 -1.87862,-1.94712 -2.54694,-2.91749 -1.03255,-1.51523 -1.38778,-3.0723 -0.34332,-1.57304 0.0148,-3.12024 0.38599,-1.55127 1.38626,-2.89313 0.95264,-1.27797 2.28113,-2.12666 1.32848,-0.84869 2.82194,-1.15193 1.49346,-0.30324 3.05257,0.0389 1.57508,0.35404 3.01279,1.42576 1.03835,0.77402 2.31371,2.1969 1.30324,1.4188 1.99014,1.93085 0.86263,0.64303 1.9152,0.83123 l 1.21407,0.90501 -4.2073,7.07759 -1.11822,-0.83356 q 0.62557,-4.10631 0.0435,-6.92594 -0.5542,-2.82369 -2.87051,-4.55035 -1.15017,-0.85738 -2.54546,-1.05255 -1.38339,-0.21114 -2.693,0.27886 -1.29363,0.5019 -2.1391,1.63609 -1.19081,1.59746 -0.73566,3.25386 0.45514,1.6564 2.25824,3.67148 1.81907,2.02699 3.27015,3.58085 1.46705,1.56577 2.10023,2.78331 1.15425,2.25209 0.98175,4.58378 -0.1725,2.33169 -1.661,4.32851 -1.42897,1.91694 -3.59393,2.88763 -2.16496,0.97069 -4.59249,0.72674 -2.41563,-0.25992 -4.47635,-1.79606 -1.16614,-0.86928 -1.62621,-1.4856 -0.46007,-0.61632 -1.51673,-2.19923 -1.05665,-1.58291 -1.82343,-2.15449 -1.27796,-0.95265 -2.75516,-0.53788 l -0.91055,-0.67876 z m 20.27648,-0.96392 1.74728,-3.4441 q -0.65815,-0.21725 -1.18531,-0.61021 -0.57509,-0.42869 -1.11503,-1.10455 0.32937,0.89166 0.42755,1.76009 0.0982,0.86842 0.0895,1.98024 -0.009,1.11183 0.036,1.41853 z m -21.96422,4.32815 -3.17945,4.26521 q 0.91577,-0.2617 1.43015,-0.15163 0.53035,0.12198 1.32124,0.76124 -0.0627,-1.01597 -0.088,-1.48213 0.003,-0.47023 0.0799,-1.30729 0.10513,-0.84113 0.43622,-2.0854 z m 9.82414,-13.17901 q -1.17658,1.01163 -1.73626,1.76243 -0.63113,0.84665 -0.98662,1.92362 -0.34358,1.061 -0.35606,2.24456 -5.7e-4,1.16759 0.34507,2.17078 0.46618,1.34155 1.39794,2.45859 0.94366,1.10107 2.84232,3.08798 1.92654,1.98284 2.50714,2.93752 1.11678,1.70228 1.10605,3.48358 0.005,1.7932 -1.14983,3.34273 -0.85738,1.15017 -2.46498,1.93991 2.3221,-0.38138 3.67962,-2.20248 1.40514,-1.885 1.22853,-3.68169 -0.14872,-1.80075 -1.20538,-3.38366 -1.02877,-1.58697 -3.18331,-3.86403 -2.14263,-2.29304 -2.19462,-2.35665 -1.82779,-2.282 -1.92627,-4.61688 -0.0825,-2.32297 1.33454,-4.22394 0.26198,-0.35144 0.42462,-0.60297 0.17862,-0.23962 0.3375,-0.4194 z"
       id="path1172" /><path
       d="m 191.79865,443.82406 q 1.29974,-2.19429 3.40466,-3.40219 2.12207,-1.19774 4.51419,-1.17027 2.41941,0.0205 4.59656,1.31006 2.12573,1.25912 3.2752,3.30629 1.16663,2.05732 1.12202,4.43928 -0.0446,2.38196 -1.3342,4.55911 -0.98496,1.66287 -2.48552,2.78875 -1.47327,1.11889 -3.19299,1.55918 -1.69242,0.4333 -3.42624,0.19367 -1.73382,-0.23964 -3.32811,-1.18398 -2.14287,-1.26928 -3.34694,-3.30247 -1.18693,-2.02303 -1.18676,-4.40816 0.0275,-2.39212 1.38813,-4.68927 z m 1.86158,10.73621 q -1.4264,-2.67434 -1.44403,-5.1858 -0.0176,-2.51146 1.29226,-4.7229 0.99511,-1.68 2.27796,-2.6338 1.28284,-0.95379 2.67816,-1.35466 1.42262,-0.40785 3.30427,-0.61327 -2.09698,-0.40844 -3.92273,0.0154 -1.82574,0.4238 -3.22727,1.53887 -1.39137,1.09792 -2.33572,2.69222 -0.69049,1.16571 -1.00066,2.51039 -0.31018,1.34467 -0.16264,2.65941 0.16469,1.3249 0.78709,2.61987 0.62241,1.29497 1.75331,2.4743 z m 2.96865,-9.1951 q -2.16285,3.65144 -2.3388,6.37244 -0.1658,2.70385 1.53135,3.70912 0.85714,0.50771 2.01061,0.24148 1.16363,-0.28337 2.41469,-1.41809 1.27836,-1.14171 2.47656,-3.16457 2.11208,-3.56573 2.32997,-6.12294 0.24518,-2.56421 -1.43482,-3.55932 -1.62858,-0.96466 -3.43073,0.006 -1.79199,0.95326 -3.55883,3.93613 z m 1.77652,10.80161 q 1.70205,0.0587 3.29149,-1.06084 1.58944,-1.11956 2.89934,-3.33099 3.22904,-5.45145 0.85399,-9.10454 0.48921,1.9108 -0.0322,3.964 -0.5043,2.06336 -2.25083,5.01194 -1.10681,1.86858 -2.25251,2.90361 -1.11841,1.02804 -2.50925,1.61682 z"
       id="path1174" /><path
       d="m 210.73041,461.06643 5.79226,-11.8502 -2.54189,-1.24245 0.60373,-1.23514 2.54189,1.24245 1.18995,-2.43449 q 1.1462,-2.34498 2.8096,-3.66095 1.69004,-1.32513 3.70238,-1.49474 2.01233,-0.16961 4.0888,0.84535 1.23514,0.60372 1.94643,1.41712 0.72919,0.82214 0.85257,1.65866 0.15002,0.82736 -0.20871,1.56128 -0.40249,0.82343 -1.31694,1.19702 -0.88781,0.36443 -1.74704,-0.0555 -0.80553,-0.39374 -1.04506,-1.26485 -0.21288,-0.88026 0.13711,-1.59628 0.1054,-0.17026 0.16664,-0.29557 0.0879,-0.13445 0.2104,-0.38506 0.27124,-0.55492 0.0886,-1.04337 -0.18262,-0.48846 -0.68384,-0.73345 -0.76972,-0.37623 -1.58472,0.15685 -0.78835,0.52394 -1.47083,1.92018 l -3.03612,6.21152 3.32951,1.62743 -0.60373,1.23514 -3.32951,-1.62743 -5.66102,11.58169 q -0.34999,0.71603 -0.35432,1.22399 0.004,0.49006 0.42688,0.89615 0.44037,0.41485 1.2996,0.83483 l 0.59072,0.28874 -0.48123,0.98453 -9.34412,-4.56731 0.48124,-0.98454 q 1.19893,0.54168 1.94715,0.5082 0.77486,-0.0426 1.2036,-0.91975 z m 8.15876,-15.23984 -7.5247,15.39453 q -0.57747,1.18144 -1.84994,1.38003 2.13017,1.04121 3.03138,-0.80256 l 7.5072,-15.35872 q 1.03246,-2.11227 2.18869,-3.34348 1.18289,-1.24036 2.80535,-2.15497 -2.03778,0.31241 -3.55998,1.47563 -1.5043,1.17197 -2.598,3.40954 z m 9.61039,-3.4638 q 0.20292,0.76451 -0.05,1.37273 -0.13044,0.35761 -0.28713,0.76892 -0.14794,0.39342 -0.18053,0.73232 -0.0326,0.33891 0.13052,0.64041 0.18976,0.29235 0.63728,0.51109 0.89503,0.43749 1.82418,-0.28376 -0.49962,-0.0668 -0.66072,-0.14553 -0.66232,-0.32374 -0.6791,-1.19685 0.006,-1.28323 -0.0677,-1.58553 -0.0653,-0.32021 -0.66673,-0.8138 z"
       id="path1176" /><path
       d="m 224.8119,465.45182 4.30423,-10.48822 -1.9723,-0.80941 0.38579,-0.94007 q 2.12134,-0.55088 3.19714,-0.86318 1.08336,-0.33074 2.13508,-0.84677 1.07015,-0.50845 1.94937,-1.18142 l 0.97693,0.40092 -1.97435,4.81095 4.57132,1.876 -0.47657,1.16127 -4.57131,-1.87601 -4.5236,11.02277 q -0.49926,1.21656 -0.45397,1.94588 0.0529,0.71088 0.7533,0.99833 0.66358,0.27232 1.36785,0.13061 0.72271,-0.13416 1.85146,-0.57549 l 0.38699,0.99876 q -1.96492,0.85198 -3.41364,1.07586 -1.42271,0.21301 -2.91577,-0.39972 -1.41932,-0.58247 -1.95473,-1.53446 -0.53541,-0.95199 -0.41003,-2.14968 0.15139,-1.20857 0.78681,-2.75692 z m 7.39661,-12.88046 -1.63261,0.51454 -5.02286,12.23933 q -1.00608,2.45156 -0.84081,3.83315 0.19127,1.37072 1.83179,2.04397 0.86634,0.35553 1.84614,0.43457 -1.70007,-0.63307 -2.24444,-1.82564 -0.51837,-1.20344 0.28348,-3.15731 z"
       id="path1178" /><path
       d="m 263.48315,471.76538 -8.01217,9.94783 -1.47265,-0.43018 -1.55129,-10.74874 -6.72996,8.32968 -1.47264,-0.43018 -2.22141,-14.99215 q -0.24394,-1.79411 -0.63333,-2.59284 -0.37027,-0.79315 -1.39982,-1.17693 l 0.31845,-1.09014 8.64463,2.52521 -0.31845,1.09014 q -1.47028,-0.36722 -1.79431,0.74205 -0.095,0.32513 -0.0975,0.76028 -0.003,0.43515 0.0499,0.8241 0.0524,0.38895 0.13991,0.87116 l 1.33141,8.58803 3.93195,-4.9333 -0.415,-2.48755 q -0.23448,-1.54226 -0.60711,-2.39837 -0.36705,-0.87524 -1.20041,-1.57533 l 0.31845,-1.09014 9.39051,2.74309 -0.31844,1.09014 q -1.05189,-0.30727 -1.7477,-0.19917 -0.6711,0.0946 -0.94485,1.03171 -0.14526,0.49725 -0.1287,0.93799 0.0357,0.44633 0.21922,1.80765 l 1.21773,7.91135 3.5516,-4.48396 q 0.28945,-0.35135 0.66421,-0.78157 0.38034,-0.44934 0.74242,-1.04932 0.36208,-0.59998 0.57437,-1.32674 0.26258,-0.89889 -0.0583,-1.71911 -0.31526,-0.83936 -1.22124,-1.29082 l 0.31844,-1.09014 6.5791,1.92183 -0.31844,1.09015 q -2.3726,-0.0496 -5.32854,3.67429 z m 3.1403,-4.35502 -2.84966,-0.83242 q 0.49468,0.5804 0.57334,1.16383 0.0842,0.5643 -0.0827,1.49112 0.36208,-0.59998 1.02457,-1.09145 0.66808,-0.51059 1.33445,-0.73108 z m -14.14619,-0.60355 2.04023,13.6938 0.2295,0.067 q 0.5254,-0.44849 0.66507,-0.92662 0.17877,-0.61201 0.11365,-1.17072 -0.0595,-0.57784 -0.21062,-1.41075 l -1.44017,-9.6369 q -0.29014,-1.84912 -0.54008,-2.62788 -0.24993,-0.77875 -0.73752,-1.17027 -0.48201,-0.41065 -1.4574,-0.69557 0.62535,0.7016 0.88001,1.60628 0.25466,0.90468 0.45733,2.27159 z m -9.53834,-1.81068 1.86292,12.66641 0.30601,0.0894 q 0.47124,-0.54733 0.58856,-0.94896 0.18995,-0.65026 -0.21151,-3.1131 l -1.36217,-9.40655 q -0.21535,-1.53667 -0.41908,-2.26042 -0.19814,-0.74286 -0.65543,-1.16705 -0.43259,-0.43772 -1.41356,-0.70352 0.31783,0.4042 0.51683,1.00202 0.21812,0.60341 0.40101,1.61167 0.18848,0.98913 0.38642,2.23011 z"
       id="path1180" /><path
       d="m 276.02264,469.93643 q -0.0134,0.0786 0.15835,0.6131 0.17173,0.53452 0.0981,0.96664 -0.14382,0.8446 -0.96464,1.39202 -0.79784,0.53112 -1.83885,0.35386 -1.00174,-0.17057 -1.50403,-0.7816 -0.49896,-0.63066 -0.3819,-1.31813 0.17392,-1.02137 1.32324,-1.83624 1.16896,-0.81152 3.00113,-1.12609 1.85515,-0.33088 3.95682,0.027 1.53207,0.26088 2.75777,1.01529 1.24534,0.75776 1.84706,1.97184 0.60173,1.21409 0.34085,2.74615 l -1.69904,9.97806 q -0.20401,1.19815 0.48345,1.31521 0.41248,0.0702 1.11211,-0.47761 l 0.58293,0.96835 q -1.12634,0.79857 -2.03491,1.14914 -0.88893,0.35392 -2.00851,0.16328 -1.29636,-0.22074 -1.92612,-0.9141 -0.62641,-0.71301 -0.71368,-1.98097 -3.10857,1.87583 -5.76022,1.42432 -1.88562,-0.32108 -2.83798,-1.49381 -0.93271,-1.16939 -0.67518,-2.68181 0.23077,-1.35529 1.05914,-2.18438 0.85134,-0.84539 2.07503,-1.38485 1.24668,-0.55575 3.59793,-1.30743 2.35458,-0.77133 3.88628,-1.33918 l 0.50503,-2.96592 q 0.22743,-1.33564 -0.26441,-2.12679 -0.49184,-0.79114 -1.70963,-0.99851 -1.06066,-0.1806 -1.73645,0.10855 -0.6528,0.27286 -0.72972,0.72462 z m 4.87099,3.67922 -1.3211,7.75853 q -0.39131,2.2981 -0.0942,3.52094 0.30041,1.2032 1.73426,1.44735 0.64818,0.11037 1.06778,0.0201 -1.14841,-0.37745 -1.50902,-1.2271 -0.36061,-0.84964 -0.083,-2.47992 l 1.53515,-9.0156 q 0.34784,-2.04276 -0.11098,-2.90912 -0.43583,-0.88267 -1.82329,-1.28061 0.69914,0.52327 0.82739,1.31314 0.12825,0.78987 -0.22293,2.85226 z m -2.23684,9.21951 1.0736,-6.30503 q -2.75496,0.98611 -3.95068,1.95476 -1.17608,0.972 -1.45033,2.58263 -0.18395,1.0803 0.30497,1.76989 0.48891,0.6896 1.27459,0.82338 1.23743,0.21071 2.74785,-0.82563 z m -3.91852,2.12193 q -1.7874,-0.30435 -2.74396,-1.21505 -0.93691,-0.90736 -0.70279,-2.28229 0.17057,-1.00173 0.83177,-1.79865 0.68418,-0.81323 1.91249,-1.73591 -1.74818,0.65226 -2.79595,1.4642 -1.02812,0.81529 -1.25221,2.1313 -0.20402,1.19815 0.69987,2.18073 0.92688,0.96628 2.16432,1.17699 1.19815,0.20401 1.88646,0.0787 z m 0.26409,-12.70839 q -0.71714,-0.0615 -1.03348,-0.45894 -0.31634,-0.39746 -0.23941,-0.84922 0.10368,-0.60889 0.51786,-1.02344 0.41752,-0.43419 1.39633,-1.19724 -1.51497,0.46964 -2.38177,1.04965 -0.86679,0.58002 -1.0173,1.4639 -0.0669,0.39284 0.26575,0.81328 0.35562,0.40415 0.90559,0.49779 0.94281,0.16054 1.58643,-0.29578 z"
       id="path1182" /><path
       d="m 298.50981,470.58239 -0.26451,3.05696 q 1.67791,-1.59473 2.54846,-2.17937 0.87226,-0.6045 2.02358,-0.50488 0.99252,0.0859 1.6056,0.85889 0.63465,0.75488 0.54191,1.8268 -0.0962,1.11162 -0.77682,1.81269 -0.67891,0.68122 -1.61188,0.6005 -0.41685,-0.0361 -0.89937,-0.23781 -0.48252,-0.20175 -0.79765,-0.489 -0.18477,-0.17598 -0.38766,-0.37352 -0.2029,-0.19755 -0.37296,-0.31226 -0.15022,-0.11299 -0.34872,-0.13017 -0.37716,-0.0326 -0.78008,0.23249 -0.38135,0.24699 -0.90242,0.72188 l -0.82957,9.58774 q -0.0893,1.03222 0.1508,1.49298 0.25997,0.46247 0.84518,0.6331 0.60677,0.15249 2.1154,0.28302 l -0.0945,1.09178 -10.65966,-0.92232 0.0945,-1.09178 0.53596,0.0464 q 2.30265,0.19923 2.46066,-1.627 l 0.77118,-8.91283 q 0.19752,-2.2828 -2.56723,-3.38197 l 0.0584,-0.67492 6.56874,-1.49154 z m -4.37751,5.52095 -0.78148,9.03193 q -0.0584,0.67491 -0.30595,0.99347 -0.24583,0.29872 -0.69532,0.63981 1.14006,-10e-4 1.67925,-0.45468 0.54092,-0.47317 0.64913,-1.72374 l 0.7248,-8.37687 q 0.14771,-1.70713 -0.38082,-2.53282 -0.52853,-0.8257 -1.8188,-0.93734 -0.0993,-0.009 -0.44015,0.002 -0.34089,0.0105 -0.45999,2e-4 2.02513,1.09517 1.82933,3.35812 z m 5.44298,-2.34891 q 0.53596,0.0464 1.04101,0.45005 1.14656,1.07916 1.98028,1.1513 1.03222,0.0893 1.6237,-1.19945 -0.57985,0.22982 -0.83791,0.20749 -0.59551,-0.0515 -1.15667,-0.50006 -0.70107,-0.68063 -1.19733,-0.72357 -0.47641,-0.0412 -1.45308,0.61424 z"
       id="path1184" /><path
       d="m 323.58741,484.19858 0.79437,0.62102 q -0.90366,1.66986 -2.14352,2.74056 -1.23985,1.07071 -2.73637,1.58243 -1.47659,0.51181 -3.09046,0.505 -2.19169,-0.009 -4.08004,-1.07324 -1.86844,-1.0639 -2.95587,-3.06096 -1.08743,-1.99707 -1.07674,-4.52747 0.008,-1.99243 0.67332,-3.743 0.68483,-1.75049 1.866,-3.08046 1.2011,-1.32989 2.75831,-2.06053 1.57723,-0.75048 3.3505,-0.74299 1.79319,0.008 3.40387,0.77151 1.63069,0.7441 2.58151,2.06314 0.69331,0.95932 0.98789,1.97672 0.31458,0.99757 0.48793,2.41296 l -12.03433,-0.0508 q 0.0709,2.07247 0.68255,3.50964 0.63152,1.43724 1.62404,2.31812 1.01244,0.88096 2.14654,1.26432 1.13409,0.38336 2.17016,0.38774 2.51047,0.0106 4.59034,-1.8137 z m -3.49751,-6.90873 1.39471,0.006 q -0.0503,-2.23178 -0.90264,-3.29139 -0.85221,-1.07953 -2.86306,-1.44667 1.27272,0.58319 1.82665,1.52199 0.55401,0.91888 0.54602,2.8117 z m -7.59119,-0.0321 6.95361,0.0294 0.003,-0.6575 q 0.005,-1.15562 -0.40975,-2.05398 -0.41454,-0.91829 -1.14973,-1.39959 -0.71517,-0.50113 -1.65162,-0.50509 -1.51425,-0.006 -2.57596,1.34401 -1.06163,1.33047 -1.16933,3.24279 z m 0.19589,-3.92434 q -3.73831,2.93308 -3.7585,7.71493 -0.0146,3.46684 2.18764,5.68779 2.22228,2.2011 5.13124,2.21338 1.69357,0.007 3.39,-0.66313 1.71644,-0.69012 2.8977,-2.04001 -1.21867,0.77192 -2.49593,1.26464 -1.25726,0.47289 -3.0106,0.46549 -2.96874,-0.0125 -4.95243,-2.09309 -1.96376,-2.08046 -1.94971,-5.40783 0.009,-2.11199 0.67348,-3.78286 0.66457,-1.67087 1.88711,-3.35931 z"
       id="path1186" /><path
       d="m 349.39861,472.93461 1.39343,8.65536 q 0.23118,1.436 0.55773,2.21086 0.34306,0.75201 0.9572,1.05677 0.61096,0.28508 1.6497,0.21876 1.05842,-0.0695 2.8485,-0.35768 2.16384,-0.34835 3.77074,-1.27303 1.62339,-0.9475 2.93223,-2.46999 1.32535,-1.54532 2.78992,-3.98084 l 1.5737,-0.25335 -1.3125,7.51686 -24.21534,3.89843 -0.17418,-1.08192 q 1.74441,-0.3212 2.60812,-0.7226 0.88022,-0.42424 1.1558,-1.09422 0.29208,-0.69282 0.1084,-1.83375 l -3.13204,-19.45489 q -0.22168,-1.37699 -0.6771,-1.94947 -0.45543,-0.57247 -1.33613,-0.65268 -0.88386,-0.0999 -2.84716,0.11528 l -0.17417,-1.08192 23.25144,-3.74325 3.39046,5.89195 -1.41633,0.22801 q -1.37212,-1.25232 -3.21135,-2.14691 -1.82273,-0.91743 -3.98255,-1.29624 -2.14015,-0.38197 -4.40234,-0.0178 -1.79009,0.28818 -2.63163,0.82729 -0.84471,0.51943 -1.02894,1.25542 -0.18423,0.736 -0.004,1.85726 l 1.38076,8.57668 3.95392,-0.63654 q 5.17355,-0.83289 4.46934,-5.58317 l 1.37699,-0.22168 1.67845,10.42577 -1.21962,0.19635 q -0.62242,-2.36189 -1.91786,-3.2633 -1.27893,-0.92425 -3.5608,-0.55689 z m 15.01934,10.55849 0.80629,-3.64132 q -0.95793,1.44581 -1.80081,2.2273 -0.84605,0.76182 -2.42828,1.96506 z m -5.86306,-10.72079 -0.62071,-3.85557 q -0.555,1.44149 -2.48297,2.37749 1.12943,0.12089 1.82541,0.43264 0.69599,0.31176 1.27827,1.04544 z m 0.89709,-14.73536 -3.5605,0.5732 q 1.55452,0.25427 2.80629,0.75909 1.25178,0.50481 2.68559,1.26286 z m -15.86747,5.98529 3.06237,19.02212 q 0.23118,1.43601 0.004,2.15867 -0.22673,0.72266 -0.82272,1.28277 1.62955,-0.28252 1.96865,-1.18472 0.35561,-0.92504 0.0547,-2.79381 l -3.06553,-19.04179 q -0.26919,-1.67206 -0.92516,-2.11134 -0.65914,-0.45896 -2.12115,-0.26395 0.79117,0.27625 1.19392,0.89757 0.41925,0.59848 0.65043,2.03448 z"
       id="path1188" /><path
       d="m 375.27133,463.69403 0.73139,2.54704 q 1.25121,-1.70672 2.42393,-2.74829 1.19188,-1.04706 3.08779,-1.59147 5.41964,-1.55627 6.9649,3.82507 l 2.50762,8.73269 q 0.35744,1.2448 1.0446,1.39988 0.68715,0.15509 1.89364,-0.19136 l 0.30246,1.05329 -9.23062,2.65059 -0.30245,-1.05328 q 1.22564,-0.35195 1.67103,-0.89444 0.45904,-0.56714 0.0961,-1.83108 l -2.65609,-9.24976 q -0.29146,-1.01499 -0.81499,-1.61093 -0.50988,-0.62058 -1.22718,-0.80847 -0.71731,-0.18789 -1.59824,0.0651 -1.09158,0.31345 -1.97989,1.19042 -0.87466,0.85233 -1.80866,2.36431 l 2.90356,10.11154 q 0.24746,0.86178 0.6667,1.23891 0.41924,0.37713 0.931,0.35455 0.53091,-0.0281 1.46114,-0.25373 l 0.30245,1.05329 -9.24976,2.65609 -0.30245,-1.05329 q 1.16819,-0.33544 1.71217,-0.82333 0.53849,-0.50703 0.21404,-1.63692 l -2.43613,-8.48374 q -0.36294,-1.26394 -1.15743,-1.86499 -0.79998,-0.6202 -2.19856,-0.65392 l -0.18147,-0.63197 5.50169,-3.6528 z m -2.24145,6.19921 2.52411,8.79015 q 0.24747,0.86178 0.22339,1.28329 -0.005,0.416 -0.29425,0.9966 1.82727,-0.71127 1.27735,-2.62634 l -2.62309,-9.13486 q -0.27496,-0.95753 -1.15685,-1.42983 -0.86825,-0.49696 -1.76833,-0.2385 -0.0958,0.0275 -0.33371,0.13729 -0.23796,0.10979 -0.31456,0.13179 1.94902,0.29025 2.46594,2.09041 z m 11.35272,-3.92331 2.71108,9.44127 q 0.17048,0.59367 0.21466,0.89193 0.0578,0.2736 7.7e-4,0.58021 -0.0434,0.28195 -0.29729,0.76945 l 0.36386,-0.10449 q 0.99584,-0.28595 1.11243,-1.10716 0.11109,-0.84036 -0.31234,-2.31496 l -2.43063,-8.46459 q -0.47293,-1.64696 -1.44811,-2.29977 -0.97519,-0.65281 -2.83565,-0.20149 1.15512,0.12436 1.8457,0.7967 0.68508,0.6532 1.07552,2.0129 z"
       id="path1190" /><path
       d="m 395.05972,464.1435 q -0.97065,-2.40145 0.23412,-4.84405 1.19729,-2.46106 4.28223,-3.70797 3.34355,-1.35143 6.71448,-0.24252 0.42216,-0.9228 1.0931,-1.60231 0.66346,-0.69798 1.42084,-1.0041 1.05295,-0.42559 1.9679,-0.1292 0.91495,0.29639 1.26587,1.16461 0.23893,0.59112 7.2e-4,1.22467 -0.21974,0.62608 -0.86628,0.88741 -0.38793,0.15679 -0.80257,0.088 -0.40363,-0.0947 -0.96328,-0.36282 -0.54865,-0.29401 -0.8894,-0.39268 -0.34822,-0.11714 -0.68073,0.0172 -0.29556,0.11947 -0.60843,0.56829 1.88371,1.15128 2.54823,2.79535 0.59732,1.47781 0.2777,3.13283 -0.30115,1.64755 -1.42489,2.96138 -0.73697,0.83514 -1.53799,1.35232 -0.79001,0.49124 -1.80208,0.96478 -2.04615,0.99896 -3.0716,1.86474 -1.02546,0.86578 -0.59987,1.91873 0.54505,1.3485 2.85414,0.41519 0.76838,-0.33207 1.37798,-0.57846 0.62061,-0.27233 1.67355,-0.69792 3.62064,-1.46344 5.83062,-1.15322 2.22097,0.28428 3.19908,2.7042 0.52266,1.29309 0.39053,2.61444 -0.12466,1.33982 -0.98586,2.612 -0.84271,1.26472 -2.52926,2.46218 -1.6606,1.20846 -4.099,2.19404 -3.56522,1.44103 -5.84162,1.17915 -2.2764,-0.26188 -2.95585,-1.94289 -0.47785,-1.18226 0.054,-2.47175 0.55031,-1.29695 2.26042,-2.11711 -2.80857,-0.0898 -3.60748,-2.06634 -0.52266,-1.29309 0.13771,-2.84944 0.66038,-1.55635 2.38624,-3.13504 -5.20249,-0.11073 -6.70325,-3.82373 z m 6.3671,-8.333 q 1.54772,0.32001 2.54635,1.24879 1.0171,0.92131 1.76375,2.76857 1.3589,3.36203 0.14275,5.72327 2.61886,-2.2405 1.13303,-5.91656 -1.81436,-4.48886 -5.58588,-3.82407 z m 3.65571,4.15292 q -0.88105,-2.17977 -2.21258,-3.08145 -1.33152,-0.90168 -2.51377,-0.42382 -1.20073,0.48532 -1.45392,2.092 -0.2532,1.60668 0.58305,3.67562 0.93331,2.30908 2.26168,3.36247 1.34685,1.04592 2.67688,0.50833 1.20072,-0.48532 1.40951,-2.09554 0.21979,-1.63616 -0.75085,-4.03761 z m -6.25405,-3.40356 q -1.4401,0.79698 -2.35317,2.04715 -0.92053,1.23169 -1.13756,2.60885 -0.19855,1.36968 0.31663,2.6443 0.73172,1.81032 2.43701,2.73285 1.72377,0.91506 4.31619,0.57641 -2.10268,-0.3106 -3.48254,-1.27871 -1.36886,-0.99404 -1.94378,-2.41643 -0.61972,-1.53323 -0.18964,-3.34035 0.43007,-1.80711 2.03686,-3.57407 z m 2.02375,13.30132 q -0.81363,1.12401 -1.08408,2.04997 -0.27046,0.92595 0.11033,1.86806 0.47786,1.18225 2.01065,1.46531 1.55873,0.29407 3.61666,-0.51624 4.13434,-1.62808 5.56813,-2.12164 1.45972,-0.48256 2.80701,-0.33942 1.37323,0.15414 1.93322,1.53959 0.0523,0.12931 0.15757,0.60252 0.14037,-1.08828 -0.12843,-1.7533 -0.56745,-1.40392 -2.11124,-1.66105 -1.53633,-0.23865 -3.99713,0.69151 -1.76983,0.67237 -3.52866,1.3188 -1.75137,0.66491 -2.78661,0.86844 -1.01677,0.19606 -1.70966,-0.0826 -0.67442,-0.28616 -1.03281,-1.17285 -0.2464,-0.6096 -0.17837,-1.23883 0.079,-0.65517 0.35342,-1.51824 z m 8.7655,10.36145 q 2.14283,-0.86611 3.53027,-1.89969 1.40591,-1.04105 1.9346,-2.17884 0.53615,-1.11931 0.14042,-2.09836 -0.87358,-2.1613 -5.84273,-0.15282 -2.21672,0.89598 -3.52358,1.70358 -1.30686,0.8076 -1.81037,1.7418 -0.50352,0.93419 -0.0705,2.00561 0.50026,1.23767 1.99964,1.49125 1.49939,0.25359 3.64222,-0.61253 z m -3.93468,1.59037 q -2.62423,-0.27173 -3.28875,-1.9158 -0.38079,-0.9421 0.0488,-1.84644 0.42963,-0.90433 1.51327,-2.05151 -1.85396,0.94277 -2.57877,2.07386 -0.70633,1.12362 -0.25087,2.25046 0.38826,0.96058 1.5626,1.36703 1.18181,0.42493 2.99368,0.1224 z m 5.36637,-28.30157 q -0.0873,0.42211 -0.54909,0.60877 -0.35098,0.14186 -1.1838,0.0487 -0.84029,-0.11167 -1.3021,0.075 -0.18473,0.0747 -0.33959,0.22323 -0.13639,0.14108 -0.26177,0.25623 0.13285,-0.0967 0.35452,-0.18627 0.48029,-0.19413 1.65895,0.38251 0.93065,0.54793 1.48483,0.32393 0.42487,-0.17173 0.52708,-0.55689 0.10221,-0.38516 -0.0247,-0.69919 -0.0971,-0.24015 -0.36431,-0.47598 z"
       id="path1192" /><path
       d="m 418.82376,446.86305 6.43672,12.88743 q 0.40953,0.81995 0.78363,1.16762 0.38301,0.32094 0.92658,0.2499 0.5614,-0.08 1.55958,-0.53396 l 0.48965,0.98037 -8.32424,4.15761 -0.48966,-0.98037 q 1.08734,-0.58762 1.31038,-1.21127 0.24086,-0.63254 -0.28441,-1.68421 l -4.08638,-8.18164 q -0.38282,-0.76648 -1.22915,-1.16782 -0.84633,-0.40134 -1.9513,-0.25034 l -0.28489,-0.5704 4.41267,-4.4979 z m -1.06322,6.61116 4.22883,8.46684 q 0.51636,1.03385 0.0526,1.93361 0.98037,-0.48965 1.20343,-1.15785 0.24087,-0.67709 -0.26658,-1.69311 l -4.17542,-8.3599 q -0.56978,-1.14079 -1.42505,-1.47085 -0.86417,-0.34789 -1.75541,0.0973 -0.40998,0.20476 -0.64172,0.36505 1.88902,0.0365 2.7793,1.81896 z m -5.46491,-14.19686 q 0.67734,-0.3383 1.43472,-0.29342 0.74847,0.0271 1.37204,0.4283 0.62356,0.40125 0.96187,1.07859 0.3383,0.67735 0.29342,1.43473 -0.0538,0.73955 -0.47285,1.37201 -0.41907,0.63247 -1.09642,0.97078 -1.01602,0.50746 -2.12076,0.12382 -1.10474,-0.38363 -1.6122,-1.39965 -0.3294,-0.65952 -0.29344,-1.39017 0.0449,-0.75738 0.45503,-1.36312 0.41906,-0.63246 1.07859,-0.96187 z m 0.58791,0.41906 q -1.05167,0.52526 -1.37279,1.30925 -0.32112,0.78399 0.11512,1.65741 0.41843,0.83777 1.24699,1.11436 0.81966,0.25876 1.93369,-0.23084 -0.82858,-0.23203 -1.29182,-0.49064 -0.47214,-0.27643 -0.78374,-0.9003 -0.57868,-1.15862 0.15255,-2.45924 z"
       id="path1194" /><path
       d="m 429.91997,440.78296 1.38054,2.26195 q 0.7539,-1.97739 1.60848,-3.29262 0.8716,-1.3256 2.5553,-2.35323 4.81303,-2.93755 7.72982,1.84146 l 4.73329,7.75526 q 0.67471,1.10547 1.37839,1.07281 0.70368,-0.0327 1.77513,-0.68661 l 0.5709,0.9354 -8.19744,5.00317 -0.5709,-0.93539 q 1.08845,-0.66432 1.37406,-1.30549 0.29223,-0.66855 -0.39285,-1.79102 l -5.01356,-8.21445 q -0.55014,-0.90138 -1.21294,-1.33717 -0.65618,-0.46319 -1.39763,-0.45416 -0.74145,0.009 -1.52377,0.4865 -0.96941,0.59167 -1.5934,1.67278 -0.61737,1.05373 -1.11704,2.75924 l 5.48066,8.97977 q 0.4671,0.76533 0.97133,1.0178 0.50423,0.25247 0.99169,0.095 0.50446,-0.16784 1.34157,-0.63207 l 0.5709,0.9354 -8.21445,5.01355 -0.5709,-0.93539 q 1.03743,-0.63318 1.43259,-1.24784 0.38477,-0.63166 -0.22765,-1.63508 l -4.59836,-7.53417 q -0.68508,-1.12247 -1.61049,-1.49135 -0.9358,-0.38589 -2.29326,-0.0476 l -0.34254,-0.56124 4.33625,-4.9808 z m -0.51754,6.57164 4.76443,7.80628 q 0.46711,0.76532 0.55566,1.17812 0.10555,0.40242 -0.0195,1.03896 1.57328,-1.17031 0.53528,-2.87103 l -4.95128,-8.1124 q -0.519,-0.85036 -1.49456,-1.07193 -0.96893,-0.24896 -1.76827,0.23891 -0.085,0.0519 -0.28537,0.22085 -0.20033,0.16896 -0.26836,0.21048 1.95623,-0.23691 2.93195,1.36176 z m 9.90614,-6.79301 5.11736,8.38452 q 0.32178,0.52722 0.44346,0.80309 0.12832,0.24848 0.15459,0.55924 0.0329,0.28337 -0.0826,0.82074 l 0.32314,-0.19722 q 0.88437,-0.53977 0.77905,-1.3625 -0.1157,-0.83974 -0.91497,-2.14929 l -4.58797,-7.51716 q -0.89268,-1.46261 -2.00606,-1.83349 -1.11337,-0.37088 -2.78758,0.55757 1.14675,-0.18636 1.99088,0.27882 0.83376,0.44817 1.57074,1.65568 z"
       id="path1196" /><path
       d="m 464.95166,432.17152 1.00824,0.0114 q 0.29534,1.87559 -0.0402,3.47905 -0.33551,1.60345 -1.21427,2.91845 -0.86287,1.30296 -2.14962,2.27708 -1.74744,1.32288 -3.89398,1.62342 -2.13066,0.28851 -4.20699,-0.63864 -2.07634,-0.92714 -3.60366,-2.94464 -1.20262,-1.58858 -1.73669,-3.3834 -0.51818,-1.80684 -0.38667,-3.58074 0.1474,-1.78592 0.94152,-3.31173 0.79799,-1.55373 2.21183,-2.62406 1.42972,-1.08235 3.17347,-1.45281 1.74761,-0.39837 3.30385,0.0728 1.13326,0.3416 1.98488,0.97139 0.85548,0.60187 1.85231,1.62153 l -9.59504,7.2638 q 1.31427,1.60402 2.67261,2.37499 1.37423,0.75894 2.69767,0.85661 1.33933,0.0856 2.47332,-0.29802 1.13399,-0.38366 1.96005,-1.00902 2.00162,-1.51529 2.54734,-4.22751 z m -6.97285,-3.36787 1.11201,-0.84183 q -1.39458,-1.74313 -2.71506,-2.06796 -1.33251,-0.34071 -3.15344,0.58799 1.36545,-0.30899 2.37548,0.10092 0.99801,0.39401 2.14049,1.90317 z m -6.0525,4.58197 5.54416,-4.19713 -0.39687,-0.52423 q -0.69751,-0.92138 -1.57229,-1.38369 -0.88681,-0.4782 -1.76321,-0.4145 -0.87255,0.0358 -1.61918,0.60103 -1.20732,0.91399 -1.23149,2.63161 -0.0362,1.70174 1.03888,3.28691 z m -2.22618,-3.23775 q -1.19078,4.6 1.6955,8.4126 2.09255,2.76413 5.19079,3.19256 3.10209,0.40051 5.42142,-1.35531 1.35029,-1.02223 2.2917,-2.58457 0.94526,-1.59025 1.06475,-3.38003 -0.50002,1.35314 -1.21606,2.51996 -0.71217,1.13891 -2.11013,2.19721 -2.36699,1.7919 -5.20629,1.34239 -2.82342,-0.46154 -4.83179,-3.11447 -1.27477,-1.6839 -1.76073,-3.41517 -0.48597,-1.73127 -0.53916,-3.81517 z"
       id="path1198" /><path
       d="m 480.55386,418.3637 1.00526,-0.0782 q 0.46088,1.84191 0.26921,3.46884 -0.19166,1.62693 -0.95006,3.01483 -0.74365,1.3745 -1.93873,2.45913 -1.62294,1.47296 -3.73427,1.96309 -2.09658,0.47675 -4.24711,-0.26218 -2.15052,-0.73893 -3.85112,-2.61269 -1.33905,-1.47541 -2.03053,-3.21565 -0.67673,-1.75363 -0.70341,-3.5322 -0.0119,-1.79195 0.64345,-3.38231 0.65673,-1.61851 1.96984,-2.81026 1.32787,-1.20515 3.03178,-1.72913 1.70529,-0.55212 3.29725,-0.2211 1.15914,0.23953 2.06337,0.79113 0.90559,0.52345 1.9891,1.45048 l -8.91145,8.08787 q 1.45163,1.48086 2.87313,2.12805 1.43624,0.63379 2.76313,0.61344 1.34164,-0.0337 2.43704,-0.51667 1.0954,-0.48293 1.86261,-1.17924 1.85901,-1.6872 2.16151,-4.43719 z m -7.24459,-2.73478 1.03278,-0.93734 q -1.544,-1.61228 -2.88812,-1.81845 -1.35751,-0.22093 -3.0887,0.86594 1.33258,-0.42912 2.37505,-0.11062 1.02908,0.30375 2.30118,1.70539 z m -5.6213,5.10179 5.14917,-4.67329 -0.44189,-0.48689 q -0.77665,-0.85573 -1.68906,-1.23846 -0.9258,-0.39749 -1.79307,-0.25614 -0.86591,0.11321 -1.55935,0.74256 -1.12131,1.01768 -0.99271,2.73066 0.1152,1.69822 1.32691,3.18156 z m -2.50514,-3.02707 q -0.77721,4.68763 2.43651,8.2286 2.32995,2.56721 5.454,2.71856 3.12541,0.12321 5.2795,-1.83181 1.2541,-1.13819 2.05291,-2.77802 0.80019,-1.66798 0.76012,-3.46129 -0.37777,1.39223 -0.98726,2.61807 -0.60814,1.1977 -1.90649,2.37607 -2.19836,1.99518 -5.06638,1.79981 -2.85326,-0.20876 -5.08948,-2.67268 -1.41939,-1.56393 -2.05731,-3.24516 -0.63792,-1.68123 -0.87612,-3.75215 z"
       id="path1200" /><path
       d="m 479.89021,400.57687 2.24147,2.09541 q -0.21858,-2.30451 -0.14103,-3.35028 0.063,-1.05939 0.85218,-1.90358 0.68033,-0.72775 1.66693,-0.73279 0.98566,-0.0332 1.77163,0.70156 0.81509,0.76197 0.94637,1.73023 0.11674,0.95464 -0.52277,1.63873 -0.28574,0.30566 -0.74234,0.56068 -0.45661,0.25503 -0.87713,0.32558 -0.25251,0.0367 -0.53318,0.0743 -0.28067,0.0376 -0.4759,0.10061 -0.18163,0.0484 -0.31769,0.19396 -0.25853,0.27654 -0.29873,0.75719 -0.0411,0.45248 0.0107,1.15557 l 7.03009,6.57197 q 0.75686,0.70755 1.26756,0.80312 0.52431,0.081 1.01984,-0.27399 0.49458,-0.38318 1.52868,-1.48936 l 0.80053,0.74836 -7.30673,7.81606 -0.80053,-0.74836 0.36738,-0.39299 q 1.57836,-1.68838 0.2393,-2.94019 l -6.53522,-6.10934 q -1.67383,-1.56476 -4.24544,-0.0685 l -0.49487,-0.46262 2.88214,-6.0882 z m 1.64046,6.85217 6.62254,6.19099 q 0.49488,0.46262 0.59264,0.85404 0.0832,0.37781 0.074,0.94199 0.7028,-0.89767 0.67908,-1.60171 -0.0383,-0.71765 -0.95523,-1.57486 l -6.14223,-5.74197 q -1.25174,-1.17017 -2.22758,-1.26417 -0.97585,-0.094 -1.86027,0.85207 -0.068,0.0728 -0.27024,0.34743 -0.2022,0.27464 -0.28384,0.36197 2.11183,-0.91693 3.77111,0.63422 z m 1.51265,-5.73195 q 0.36738,-0.39299 0.99675,-0.54105 1.5568,-0.2357 2.12828,-0.84701 0.70754,-0.75686 0.0589,-2.01782 -0.17721,0.59803 -0.3541,0.78725 -0.4082,0.43665 -1.10749,0.60117 -0.96826,0.13129 -1.30842,0.49516 -0.32656,0.34933 -0.41393,1.5223 z"
       id="path1202" /></g></svg>
